HIERARCHY
ROOT Hips
{
	OFFSET -0.001795 -0.223333 0.028219
	CHANNELS 6 Xposition Yposition Zposition Zrotation Yrotation Xrotation 
	JOINT LeftUpLeg
	{
		OFFSET 0.069520 -0.091406 -0.006815
		CHANNELS 3 Zrotation Yrotation Xrotation
		JOINT LeftLeg
		{
			OFFSET 0.034277 -0.375199 -0.004496
			CHANNELS 3 Zrotation Yrotation Xrotation
			JOINT LeftFoot
			{
				OFFSET -0.013596 -0.397961 -0.043693
				CHANNELS 3 Zrotation Yrotation Xrotation
				JOINT LeftToe
				{
					OFFSET 0.026358 -0.055791 0.119288
					CHANNELS 3 Zrotation Yrotation Xrotation
					End Site
					{
						OFFSET 0.000000 0.000000 0.000000
					}
				}
			}
		}
	}
	JOINT RightUpLeg
	{
		OFFSET -0.067670 -0.090522 -0.004320
		CHANNELS 3 Zrotation Yrotation Xrotation
		JOINT RightLeg
		{
			OFFSET -0.038290 -0.382569 -0.008850
			CHANNELS 3 Zrotation Yrotation Xrotation
			JOINT RightFoot
			{
				OFFSET 0.015774 -0.398415 -0.042312
				CHANNELS 3 Zrotation Yrotation Xrotation
				JOINT RightToe
				{
					OFFSET -0.025372 -0.048144 0.123348
					CHANNELS 3 Zrotation Yrotation Xrotation
					End Site
					{
						OFFSET 0.000000 0.000000 0.000000
					}
				}
			}
		}
	}
	JOINT Spine
	{
		OFFSET -0.002533 0.108963 -0.026696
		CHANNELS 3 Zrotation Yrotation Xrotation
		JOINT Spine1
		{
			OFFSET 0.005487 0.135180 0.001092
			CHANNELS 3 Zrotation Yrotation Xrotation
			JOINT Spine2
			{
				OFFSET 0.001457 0.052922 0.025425
				CHANNELS 3 Zrotation Yrotation Xrotation
				JOINT Neck
				{
					OFFSET -0.002778 0.213870 -0.042857
					CHANNELS 3 Zrotation Yrotation Xrotation
					JOINT Head
					{
						OFFSET 0.005152 0.064970 0.051349
						CHANNELS 3 Zrotation Yrotation Xrotation
						End Site
						{
							OFFSET 0.000000 0.000000 0.000000
						}
					}
				}
				JOINT LeftShoulder
				{
					OFFSET 0.078845 0.121749 -0.034090
					CHANNELS 3 Zrotation Yrotation Xrotation
					JOINT LeftArm
					{
						OFFSET 0.090977 0.030469 -0.008868
						CHANNELS 3 Zrotation Yrotation Xrotation
						JOINT LeftForeArm
						{
							OFFSET 0.259612 -0.012772 -0.027456
							CHANNELS 3 Zrotation Yrotation Xrotation
							JOINT LeftHand
							{
								OFFSET 0.249234 0.008986 -0.001171
								CHANNELS 3 Zrotation Yrotation Xrotation
								End Site
								{
									OFFSET 0.000000 0.000000 0.000000
								}
							}
						}
					}
				}
				JOINT RightShoulder
				{
					OFFSET -0.081759 0.118833 -0.038615
					CHANNELS 3 Zrotation Yrotation Xrotation
					JOINT RightArm
					{
						OFFSET -0.096012 0.032551 -0.009143
						CHANNELS 3 Zrotation Yrotation Xrotation
						JOINT RightForeArm
						{
							OFFSET -0.253742 -0.013329 -0.021401
							CHANNELS 3 Zrotation Yrotation Xrotation
							JOINT RightHand
							{
								OFFSET -0.255298 0.007772 -0.005559
								CHANNELS 3 Zrotation Yrotation Xrotation
								End Site
								{
									OFFSET 0.000000 0.000000 0.000000
								}
							}
						}
					}
				}
			}
		}
	}
}
MOTION
Frames: 18
Frame Time: 0.050000
0.000000 0.942469 0.000000 0.191429 -3.311724 6.720699 5.208002 -0.267156 -3.404797 3.077282 -0.162822 -3.009203 -3.880728 1.702212 22.895122 0.000000 0.000000 0.000000 -3.877426 0.426667 -3.814946 -6.337274 0.121783 -5.367615 -18.665356 -29.360592 49.547879 0.000000 0.000000 0.000000 5.931165 0.308069 -5.011572 -3.271158 1.500837 -2.411385 -4.991266 5.235726 0.919519 5.719003 -3.667546 -4.643681 0.000000 0.000000 0.000000 -18.004667 -1.086546 -2.338079 -53.704712 -5.361861 -3.487786 -7.741362 -14.099582 1.344237 0.000000 0.000000 0.000000 16.449619 -6.835692 -4.242849 61.857252 2.982382 -3.902762 8.788454 19.572614 2.130734 0.000000 0.000000 0.000000 
0.000197 0.941884 0.000135 0.206671 -3.586665 7.612455 4.988059 -0.265682 -3.150357 3.377550 -0.054487 -5.056962 -3.770735 1.876634 23.167152 0.000000 0.000000 0.000000 -3.800358 0.521386 -5.094425 -6.610677 0.174945 -4.907985 -18.627383 -29.402326 49.382792 0.000000 0.000000 0.000000 7.125306 0.376082 -5.603380 -4.006262 1.813844 -2.787883 -6.132588 5.434188 0.584531 5.590671 -3.495644 -4.969797 0.000000 0.000000 0.000000 -18.979701 -0.501645 -2.877561 -52.123536 -5.602168 -3.181289 -8.591525 -13.617892 1.388135 0.000000 0.000000 0.000000 16.242181 -8.138347 -4.852153 63.176043 2.040483 -4.385173 8.966163 19.272561 2.128321 0.000000 0.000000 0.000000 
0.000301 0.941797 0.000063 0.661629 -3.160689 7.362674 4.459785 -0.289782 -3.528554 3.496899 -0.121507 -4.147268 -3.987811 1.629333 23.047411 0.000000 0.000000 0.000000 -4.088312 0.520218 -5.141701 -6.940425 0.268551 -4.194699 -18.960085 -29.609703 49.577907 0.000000 0.000000 0.000000 6.748935 0.322632 -5.158777 -3.868337 1.736308 -3.595997 -6.451732 4.741851 0.841406 4.797167 -3.062969 -4.207507 0.000000 0.000000 0.000000 -19.085219 -0.897327 -2.578380 -51.858131 -5.136296 -3.401973 -7.902484 -13.277646 1.289071 0.000000 0.000000 0.000000 17.384209 -7.182806 -4.568423 61.689777 1.558539 -4.651620 9.236895 19.766084 2.219748 0.000000 0.000000 0.000000 
0.000266 0.942017 0.000030 0.899798 -3.020614 7.802637 4.608012 -0.313569 -3.911190 2.810060 -0.053175 -4.416393 -4.125659 1.552929 23.314473 0.000000 0.000000 0.000000 -4.286749 0.560646 -5.712760 -7.044625 0.295785 -3.987008 -19.062439 -29.663475 49.757151 0.000000 0.000000 0.000000 6.860271 0.309446 -5.120596 -4.290978 1.928143 -3.249275 -6.584595 4.019946 -0.416164 4.500946 -2.977122 -3.376651 0.000000 0.000000 0.000000 -19.109682 -0.361240 -2.772677 -51.981457 -5.725059 -3.051767 -6.942423 -12.700979 1.133516 0.000000 0.000000 0.000000 16.248752 -7.468694 -4.702336 62.105610 1.029046 -4.787246 10.691930 20.124801 2.465505 0.000000 0.000000 0.000000 
0.000125 0.942435 -0.000074 1.091733 -2.657122 7.641672 4.198655 -0.332620 -4.151126 3.240123 -0.118236 -3.854663 -4.325385 1.375151 23.368216 0.000000 0.000000 0.000000 -4.375182 0.552731 -5.662544 -7.180031 0.344586 -3.628791 -19.234886 -29.727287 50.038364 0.000000 0.000000 0.000000 6.611809 0.273069 -4.806464 -4.120853 1.859088 -3.151574 -6.808115 3.716761 -0.404239 4.170978 -2.576236 -4.358458 0.000000 0.000000 0.000000 -18.885717 -0.657650 -2.570189 -51.986444 -6.020525 -2.935098 -7.160166 -12.466835 1.137935 0.000000 0.000000 0.000000 16.094130 -7.547261 -4.730187 61.931984 1.021478 -4.776798 10.922866 20.056369 2.491132 0.000000 0.000000 0.000000 
-0.000045 0.942842 -0.000059 1.242874 -2.396008 7.892246 4.220861 -0.347167 -4.344678 2.978794 -0.080918 -4.112027 -4.521502 1.245856 23.626742 0.000000 0.000000 0.000000 -4.435413 0.558728 -5.756852 -7.312946 0.333473 -3.841594 -19.336635 -29.742637 50.334251 0.000000 0.000000 0.000000 6.407282 0.269593 -4.868338 -4.079066 1.834630 -3.430586 -6.912836 3.475045 -0.332561 4.228236 -2.631122 -4.291073 0.000000 0.000000 0.000000 -19.135143 -0.367522 -2.739007 -51.652703 -5.966857 -2.936181 -6.930187 -12.516549 1.119856 0.000000 0.000000 0.000000 15.875562 -7.614267 -4.748123 62.193583 0.907498 -4.852987 10.899859 19.824381 2.451069 0.000000 0.000000 0.000000 
-0.000171 0.943207 -0.000042 1.322591 -2.127616 7.861398 4.125927 -0.360055 -4.524929 3.053318 -0.101964 -3.840164 -4.678127 1.117271 23.711767 0.000000 0.000000 0.000000 -4.409317 0.557324 -5.776455 -7.451540 0.367432 -3.631556 -19.438629 -29.764207 50.581473 0.000000 0.000000 0.000000 6.280951 0.247654 -4.675789 -4.095318 1.848413 -3.224509 -6.884653 3.053850 -0.362786 4.227983 -2.539192 -4.919667 0.000000 0.000000 0.000000 -19.068308 -0.199133 -2.752046 -51.749418 -5.806658 -3.019155 -6.992830 -12.675275 1.144911 0.000000 0.000000 0.000000 15.751036 -7.516213 -4.728924 62.368944 0.696661 -4.978179 10.848916 20.036544 2.461701 0.000000 0.000000 0.000000 
-0.000233 0.943561 -0.000058 1.350585 -1.909210 8.119637 4.037998 -0.389022 -4.955617 3.205668 -0.123138 -3.665481 -4.794464 1.043082 23.831509 0.000000 0.000000 0.000000 -4.453776 0.568916 -5.951519 -7.386688 0.353598 -3.730403 -19.522196 -29.777402 50.824575 0.000000 0.000000 0.000000 6.077499 0.238275 -4.671390 -3.976090 1.797251 -3.176456 -6.951187 2.994709 -0.575302 4.256649 -2.607657 -4.570415 0.000000 0.000000 0.000000 -18.890219 -0.076038 -2.815312 -51.518171 -5.557202 -3.086276 -7.159765 -13.018877 1.191577 0.000000 0.000000 0.000000 15.625718 -7.814803 -4.852493 62.553286 0.458052 -5.080040 10.998752 20.024570 2.485628 0.000000 0.000000 0.000000 
-0.000282 0.944066 -0.000143 1.408972 -1.812916 8.125533 3.901311 -0.407568 -5.230341 3.350948 -0.160544 -3.247668 -4.857967 1.016417 23.942179 0.000000 0.000000 0.000000 -4.550611 0.567059 -5.940557 -7.299217 0.347893 -3.734114 -19.515152 -29.738915 50.972554 0.000000 0.000000 0.000000 5.992734 0.206641 -4.362370 -3.952944 1.780959 -3.507749 -6.821502 2.921114 -0.374147 4.300184 -2.591612 -4.908150 0.000000 0.000000 0.000000 -18.661716 0.192758 -2.891990 -51.612047 -5.379903 -3.199396 -7.402747 -13.069509 1.225656 0.000000 0.000000 0.000000 15.490527 -7.762725 -4.816098 62.459216 0.476523 -5.083380 10.943786 19.953358 2.465196 0.000000 0.000000 0.000000 
-0.000341 0.944408 -0.000218 1.495884 -1.794661 8.161557 3.876738 -0.423052 -5.486947 3.232391 -0.173206 -2.893248 -4.884161 1.018620 24.039080 0.000000 0.000000 0.000000 -4.740754 0.565314 -5.920327 -7.117670 0.324087 -3.844926 -19.506747 -29.719302 51.033963 0.000000 0.000000 0.000000 5.904184 0.188329 -4.186079 -3.949985 1.777736 -3.599308 -6.793180 2.975220 -0.354782 4.322004 -2.579239 -5.077380 0.000000 0.000000 0.000000 -18.357821 0.286349 -2.902064 -51.678276 -5.249813 -3.267993 -7.629831 -13.178106 1.260181 0.000000 0.000000 0.000000 15.241005 -7.671150 -4.724658 62.618821 0.537380 -5.054446 10.728538 19.873666 2.421367 0.000000 0.000000 0.000000 
-0.000408 0.944712 -0.000268 1.536913 -1.826730 8.235085 3.881842 -0.427339 -5.557428 3.143586 -0.164618 -2.913637 -4.895052 1.043156 24.171404 0.000000 0.000000 0.000000 -4.800999 0.568069 -5.952130 -7.087090 0.310421 -3.954337 -19.451139 -29.670210 51.078337 0.000000 0.000000 0.000000 5.945508 0.178791 -4.096890 -3.951058 1.778604 -3.550175 -6.802769 3.032800 -0.410174 4.384717 -2.617244 -5.106937 0.000000 0.000000 0.000000 -18.207675 0.404630 -2.949601 -51.709736 -5.223047 -3.278362 -7.627399 -13.355621 1.275443 0.000000 0.000000 0.000000 15.051236 -7.712608 -4.712646 62.758540 0.752162 -4.935019 10.624522 19.733005 2.386056 0.000000 0.000000 0.000000 
-0.000463 0.944815 -0.000293 1.527608 -1.539963 8.344640 4.116381 -0.433093 -5.696367 2.814106 -0.131586 -2.983361 -5.057435 0.899997 24.228924 0.000000 0.000000 0.000000 -4.826465 0.568348 -5.979511 -6.969378 0.300161 -3.994037 -19.606542 -29.738241 51.283651 0.000000 0.000000 0.000000 5.965580 0.173744 -4.090265 -3.900109 1.761417 -3.358483 -6.810007 3.022584 -0.642809 4.485203 -2.674953 -5.138256 0.000000 0.000000 0.000000 -18.061317 0.537092 -3.035601 -51.885613 -5.224720 -3.266531 -7.534685 -13.386110 1.263030 0.000000 0.000000 0.000000 14.801983 -7.955726 -4.778996 62.868903 0.765691 -4.887619 10.484930 19.747846 2.369298 0.000000 0.000000 0.000000 
-0.000498 0.945054 -0.000310 1.470176 -1.449867 8.427102 4.228797 -0.432839 -5.709415 2.748971 -0.115880 -3.149638 -5.120206 0.864322 24.319640 0.000000 0.000000 0.000000 -4.756505 0.570442 -6.006316 -6.959717 0.292203 -4.071429 -19.606202 -29.712172 51.403324 0.000000 0.000000 0.000000 5.978842 0.169047 -4.061142 -3.790574 1.714748 -3.318117 -6.806952 3.108616 -0.860429 4.563690 -2.778521 -4.789710 0.000000 0.000000 0.000000 -17.938358 0.669107 -3.121811 -51.850872 -5.365609 -3.179496 -7.655863 -13.417179 1.274720 0.000000 0.000000 0.000000 14.744049 -8.184065 -4.865602 62.855838 0.761234 -4.848836 10.346620 19.807740 2.359562 0.000000 0.000000 0.000000 
-0.000540 0.945165 -0.000362 1.361274 -1.424512 8.487821 4.336129 -0.442266 -5.919368 2.782334 -0.132906 -2.902877 -5.110137 0.871734 24.292006 0.000000 0.000000 0.000000 -4.612407 0.571540 -5.999674 -6.991857 0.281495 -4.198674 -19.574320 -29.676044 51.460812 0.000000 0.000000 0.000000 6.084278 0.163439 -4.018973 -3.740839 1.695015 -3.189898 -6.783632 3.321707 -1.118159 4.794686 -2.986792 -4.475349 0.000000 0.000000 0.000000 -17.829667 0.688075 -3.171052 -51.920596 -5.474844 -3.109088 -7.602095 -13.329914 1.254211 0.000000 0.000000 0.000000 14.573826 -8.407283 -4.921857 62.937505 0.605645 -4.886162 10.266544 20.229619 2.411380 0.000000 0.000000 0.000000 
-0.000585 0.945358 -0.000415 1.376638 -1.265024 8.607609 4.384153 -0.450181 -6.044862 2.705705 -0.121290 -2.978961 -5.208809 0.802976 24.385358 0.000000 0.000000 0.000000 -4.594346 0.570291 -5.981231 -7.023146 0.264041 -4.404152 -19.629014 -29.679731 51.633036 0.000000 0.000000 0.000000 6.094348 0.163490 -4.056553 -3.699530 1.676538 -3.237026 -6.902390 3.438370 -1.295190 4.927496 -3.094106 -4.354056 0.000000 0.000000 0.000000 -17.671618 0.676469 -3.195505 -51.940387 -5.553678 -3.055005 -7.481802 -13.466632 1.247044 0.000000 0.000000 0.000000 14.510934 -8.601341 -4.976201 62.929503 0.542235 -4.879090 10.387413 20.361617 2.457802 0.000000 0.000000 0.000000 
-0.000680 0.945413 -0.000454 1.383102 -1.149815 8.643079 4.463969 -0.453757 -6.124705 2.586916 -0.112494 -2.953272 -5.273659 0.748043 24.412762 0.000000 0.000000 0.000000 -4.483780 0.565477 -5.902199 -7.203044 0.259223 -4.569990 -19.661311 -29.677675 51.744296 0.000000 0.000000 0.000000 6.143646 0.157771 -4.013961 -3.668200 1.662670 -3.286092 -6.986507 3.521646 -1.348035 5.162058 -3.296072 -4.143840 0.000000 0.000000 0.000000 -17.582221 0.626255 -3.193036 -51.911079 -5.850520 -2.915632 -7.593097 -13.210118 1.232248 0.000000 0.000000 0.000000 14.407937 -8.646782 -4.960385 62.900412 0.545069 -4.852805 10.311786 20.684809 2.497012 0.000000 0.000000 0.000000 
-0.000849 0.945470 -0.000472 1.398044 -1.106895 8.715925 4.501896 -0.454496 -6.136404 2.520633 -0.098981 -3.092044 -5.309224 0.730805 24.476673 0.000000 0.000000 0.000000 -4.418268 0.560298 -5.807829 -7.324331 0.236337 -4.865166 -19.659962 -29.661542 51.810754 0.000000 0.000000 0.000000 6.170292 0.158259 -4.036746 -3.636070 1.651462 -3.091369 -7.124097 3.611781 -1.667640 5.290511 -3.421504 -3.913232 0.000000 0.000000 0.000000 -17.521309 0.535017 -3.182307 -51.731398 -5.869473 -2.857942 -7.772157 -13.295451 1.255038 0.000000 0.000000 0.000000 14.389361 -8.803968 -5.016565 62.840312 0.527654 -4.810385 10.680460 20.947829 2.600601 0.000000 0.000000 0.000000 
-0.001061 0.945541 -0.000491 1.343919 -1.042266 8.803726 4.608631 -0.454252 -6.154048 2.476940 -0.086217 -3.251884 -5.348410 0.709731 24.533994 0.000000 0.000000 0.000000 -4.214688 0.563702 -5.841674 -7.546793 0.240580 -4.951718 -19.651603 -29.637289 51.898188 0.000000 0.000000 0.000000 6.304152 0.159672 -4.079834 -3.629761 1.649588 -3.011266 -7.228714 3.628896 -1.804366 5.572684 -3.673860 -3.644008 0.000000 0.000000 0.000000 -17.457142 0.547124 -3.197155 -51.623618 -6.091386 -2.741073 -8.072287 -13.104797 1.268335 0.000000 0.000000 0.000000 14.440465 -8.855401 -5.040392 62.722762 0.579471 -4.757390 10.954825 21.360928 2.710321 0.000000 0.000000 0.000000 
